<mxfile host="app.diagrams.net" modified="2023-05-09T12:40:18.005Z" agent="Mozilla/5.0 (Windows NT 10.0; Win64; x64) AppleWebKit/537.36 (KHTML, like Gecko) Chrome/114.0.0.0 Safari/537.36 Edg/114.0.0.0" etag="UcH6YK5nNew4Ext-qTs-" version="21.2.9" type="github">
  <diagram name="第 1 页" id="O6dnlefpTNMdtGQeHPUG">
    <mxGraphModel dx="835" dy="741" grid="1" gridSize="10" guides="1" tooltips="1" connect="1" arrows="1" fold="1" page="1" pageScale="1" pageWidth="827" pageHeight="1169" math="0" shadow="0">
      <root>
        <mxCell id="0" />
        <mxCell id="1" parent="0" />
        <mxCell id="iUZQc7e2DvZ8VB7VIQls-11" style="rounded=0;orthogonalLoop=1;jettySize=auto;html=1;exitX=1;exitY=0.5;exitDx=0;exitDy=0;entryX=0;entryY=0.5;entryDx=0;entryDy=0;endArrow=none;endFill=0;strokeWidth=2;fillColor=#ffe6cc;strokeColor=#d79b00;" edge="1" parent="1" source="iUZQc7e2DvZ8VB7VIQls-2" target="iUZQc7e2DvZ8VB7VIQls-8">
          <mxGeometry relative="1" as="geometry" />
        </mxCell>
        <mxCell id="iUZQc7e2DvZ8VB7VIQls-12" style="edgeStyle=none;shape=connector;rounded=0;orthogonalLoop=1;jettySize=auto;html=1;exitX=1;exitY=0.5;exitDx=0;exitDy=0;entryX=0;entryY=0.5;entryDx=0;entryDy=0;labelBackgroundColor=default;strokeColor=#d79b00;strokeWidth=2;fontFamily=Helvetica;fontSize=11;fontColor=default;endArrow=none;endFill=0;fillColor=#ffe6cc;" edge="1" parent="1" source="iUZQc7e2DvZ8VB7VIQls-2" target="iUZQc7e2DvZ8VB7VIQls-10">
          <mxGeometry relative="1" as="geometry" />
        </mxCell>
        <mxCell id="iUZQc7e2DvZ8VB7VIQls-13" style="edgeStyle=none;shape=connector;rounded=0;orthogonalLoop=1;jettySize=auto;html=1;exitX=1;exitY=0.5;exitDx=0;exitDy=0;entryX=0;entryY=0.5;entryDx=0;entryDy=0;labelBackgroundColor=default;strokeColor=#d79b00;strokeWidth=2;fontFamily=Helvetica;fontSize=11;fontColor=default;endArrow=none;endFill=0;fillColor=#ffe6cc;" edge="1" parent="1" source="iUZQc7e2DvZ8VB7VIQls-2" target="iUZQc7e2DvZ8VB7VIQls-6">
          <mxGeometry relative="1" as="geometry" />
        </mxCell>
        <mxCell id="iUZQc7e2DvZ8VB7VIQls-14" style="edgeStyle=none;shape=connector;rounded=0;orthogonalLoop=1;jettySize=auto;html=1;exitX=1;exitY=0.5;exitDx=0;exitDy=0;entryX=0;entryY=0.5;entryDx=0;entryDy=0;labelBackgroundColor=default;strokeColor=#d79b00;strokeWidth=2;fontFamily=Helvetica;fontSize=11;fontColor=default;endArrow=none;endFill=0;fillColor=#ffe6cc;" edge="1" parent="1" source="iUZQc7e2DvZ8VB7VIQls-2" target="iUZQc7e2DvZ8VB7VIQls-5">
          <mxGeometry relative="1" as="geometry" />
        </mxCell>
        <mxCell id="iUZQc7e2DvZ8VB7VIQls-15" style="edgeStyle=none;shape=connector;rounded=0;orthogonalLoop=1;jettySize=auto;html=1;exitX=1;exitY=0.5;exitDx=0;exitDy=0;entryX=0;entryY=0.5;entryDx=0;entryDy=0;labelBackgroundColor=default;strokeColor=#d79b00;strokeWidth=2;fontFamily=Helvetica;fontSize=11;fontColor=default;endArrow=none;endFill=0;fillColor=#ffe6cc;" edge="1" parent="1" source="iUZQc7e2DvZ8VB7VIQls-2" target="iUZQc7e2DvZ8VB7VIQls-3">
          <mxGeometry relative="1" as="geometry" />
        </mxCell>
        <mxCell id="iUZQc7e2DvZ8VB7VIQls-16" style="edgeStyle=none;shape=connector;rounded=0;orthogonalLoop=1;jettySize=auto;html=1;exitX=1;exitY=0.5;exitDx=0;exitDy=0;entryX=0;entryY=0.5;entryDx=0;entryDy=0;labelBackgroundColor=default;strokeColor=#d79b00;strokeWidth=2;fontFamily=Helvetica;fontSize=11;fontColor=default;endArrow=none;endFill=0;fillColor=#ffe6cc;" edge="1" parent="1" source="iUZQc7e2DvZ8VB7VIQls-2" target="iUZQc7e2DvZ8VB7VIQls-4">
          <mxGeometry relative="1" as="geometry" />
        </mxCell>
        <mxCell id="iUZQc7e2DvZ8VB7VIQls-17" style="edgeStyle=none;shape=connector;rounded=0;orthogonalLoop=1;jettySize=auto;html=1;exitX=1;exitY=0.5;exitDx=0;exitDy=0;entryX=0;entryY=0.5;entryDx=0;entryDy=0;labelBackgroundColor=default;strokeColor=#d79b00;strokeWidth=2;fontFamily=Helvetica;fontSize=11;fontColor=default;endArrow=none;endFill=0;fillColor=#ffe6cc;" edge="1" parent="1" source="iUZQc7e2DvZ8VB7VIQls-2" target="iUZQc7e2DvZ8VB7VIQls-9">
          <mxGeometry relative="1" as="geometry" />
        </mxCell>
        <mxCell id="iUZQc7e2DvZ8VB7VIQls-20" style="edgeStyle=none;shape=connector;rounded=0;orthogonalLoop=1;jettySize=auto;html=1;exitX=1;exitY=0.5;exitDx=0;exitDy=0;entryX=0;entryY=0.5;entryDx=0;entryDy=0;labelBackgroundColor=default;strokeColor=#d79b00;strokeWidth=2;fontFamily=Helvetica;fontSize=11;fontColor=default;endArrow=none;endFill=0;fillColor=#ffe6cc;" edge="1" parent="1" source="iUZQc7e2DvZ8VB7VIQls-2" target="iUZQc7e2DvZ8VB7VIQls-19">
          <mxGeometry relative="1" as="geometry" />
        </mxCell>
        <mxCell id="iUZQc7e2DvZ8VB7VIQls-2" value="&lt;b&gt;&lt;font style=&quot;font-size: 21px;&quot;&gt;API&lt;/font&gt;&lt;/b&gt;" style="rounded=1;whiteSpace=wrap;html=1;fillColor=#d5e8d4;strokeColor=#82b366;" vertex="1" parent="1">
          <mxGeometry x="80" y="330" width="120" height="60" as="geometry" />
        </mxCell>
        <mxCell id="iUZQc7e2DvZ8VB7VIQls-3" value="&lt;b&gt;&lt;font style=&quot;font-size: 21px;&quot;&gt;设备：系统信息/网络状态/重力感应/罗盘/拨打电话/扫码&lt;/font&gt;&lt;/b&gt;" style="rounded=1;whiteSpace=wrap;html=1;fillColor=#d5e8d4;strokeColor=#82b366;" vertex="1" parent="1">
          <mxGeometry x="414" y="400" width="436" height="60" as="geometry" />
        </mxCell>
        <mxCell id="iUZQc7e2DvZ8VB7VIQls-4" value="&lt;b&gt;&lt;font style=&quot;font-size: 21px;&quot;&gt;界面：交互反馈/导航/动画/绘图&lt;/font&gt;&lt;/b&gt;" style="rounded=1;whiteSpace=wrap;html=1;fillColor=#d5e8d4;strokeColor=#82b366;" vertex="1" parent="1">
          <mxGeometry x="414" y="470" width="436" height="60" as="geometry" />
        </mxCell>
        <mxCell id="iUZQc7e2DvZ8VB7VIQls-5" value="&lt;b&gt;&lt;font style=&quot;font-size: 21px;&quot;&gt;位置：获取位置/选择位置/查看位置&lt;/font&gt;&lt;/b&gt;" style="rounded=1;whiteSpace=wrap;html=1;fillColor=#d5e8d4;strokeColor=#82b366;" vertex="1" parent="1">
          <mxGeometry x="414" y="330" width="436" height="60" as="geometry" />
        </mxCell>
        <mxCell id="iUZQc7e2DvZ8VB7VIQls-6" value="&lt;b&gt;&lt;font style=&quot;font-size: 21px;&quot;&gt;媒体：图片/录音/音频/视频&lt;/font&gt;&lt;/b&gt;" style="rounded=1;whiteSpace=wrap;html=1;fillColor=#d5e8d4;strokeColor=#82b366;" vertex="1" parent="1">
          <mxGeometry x="414" y="260" width="436" height="60" as="geometry" />
        </mxCell>
        <mxCell id="iUZQc7e2DvZ8VB7VIQls-8" value="&lt;span style=&quot;font-size: 21px;&quot;&gt;&lt;b&gt;网络：发起HTTPS请求/上传下载/webscoket&lt;/b&gt;&lt;/span&gt;" style="rounded=1;whiteSpace=wrap;html=1;fillColor=#d5e8d4;strokeColor=#82b366;" vertex="1" parent="1">
          <mxGeometry x="420" y="120" width="430" height="60" as="geometry" />
        </mxCell>
        <mxCell id="iUZQc7e2DvZ8VB7VIQls-9" value="&lt;b&gt;&lt;font style=&quot;font-size: 21px;&quot;&gt;开放接口：微信登录/微信支付/用户信息/消息/分享&lt;/font&gt;&lt;/b&gt;" style="rounded=1;whiteSpace=wrap;html=1;fillColor=#d5e8d4;strokeColor=#82b366;" vertex="1" parent="1">
          <mxGeometry x="414" y="540" width="436" height="60" as="geometry" />
        </mxCell>
        <mxCell id="iUZQc7e2DvZ8VB7VIQls-10" value="&lt;span style=&quot;font-size: 21px;&quot;&gt;&lt;b&gt;数据：数据缓存&lt;/b&gt;&lt;/span&gt;" style="rounded=1;whiteSpace=wrap;html=1;fillColor=#d5e8d4;strokeColor=#82b366;" vertex="1" parent="1">
          <mxGeometry x="420" y="190" width="430" height="60" as="geometry" />
        </mxCell>
        <mxCell id="iUZQc7e2DvZ8VB7VIQls-19" value="&lt;span style=&quot;font-size: 21px;&quot;&gt;&lt;b&gt;文件&lt;/b&gt;&lt;/span&gt;" style="rounded=1;whiteSpace=wrap;html=1;fillColor=#d5e8d4;strokeColor=#82b366;" vertex="1" parent="1">
          <mxGeometry x="417" y="610" width="433" height="60" as="geometry" />
        </mxCell>
      </root>
    </mxGraphModel>
  </diagram>
</mxfile>
